<?xml version="1.0" encoding="UTF-8"?>
<svg width="135px" height="38px" viewBox="0 0 135 38" version="1.1" xmlns="http://www.w3.org/2000/svg" xmlns:xlink="http://www.w3.org/1999/xlink">
    <!-- Generator: Sketch 53.2 (72643) - https://sketchapp.com -->
    <title>Recode-logo_red_outlines</title>
    <desc>Created with Sketch.</desc>
    <defs>
        <linearGradient x1="7.14419721%" y1="67.3177635%" x2="89.5847967%" y2="24.1403409%" id="linearGradient-1">
            <stop stop-color="#252324" offset="0%"></stop>
            <stop stop-color="#252324" stop-opacity="0.8585" offset="7.244101%"></stop>
            <stop stop-color="#252324" stop-opacity="0" offset="51.21%"></stop>
            <stop stop-color="#252324" stop-opacity="0.8629" offset="93.31%"></stop>
            <stop stop-color="#252324" offset="100%"></stop>
        </linearGradient>
        <linearGradient x1="7.14419721%" y1="67.3177635%" x2="89.5847967%" y2="24.1403409%" id="linearGradient-2">
            <stop stop-color="#FFFFFF" stop-opacity="0" offset="0%"></stop>
            <stop stop-color="#FFFFFF" offset="53.9%"></stop>
            <stop stop-color="#FFFFFF" stop-opacity="0" offset="100%"></stop>
        </linearGradient>
        <linearGradient x1="55.4826375%" y1="54.1042266%" x2="4.83845732%" y2="114.291048%" id="linearGradient-3">
            <stop stop-color="#FD634C" offset="0%"></stop>
            <stop stop-color="#D8292F" offset="100%"></stop>
        </linearGradient>
        <linearGradient x1="192.118848%" y1="424.394184%" x2="-24.4183255%" y2="-149.273021%" id="linearGradient-4">
            <stop stop-color="#181A19" offset="0%"></stop>
            <stop stop-color="#181A19" stop-opacity="0.28" offset="58%"></stop>
            <stop stop-color="#181A19" stop-opacity="0" offset="100%"></stop>
        </linearGradient>
        <linearGradient x1="557.36088%" y1="806.896552%" x2="-273.673603%" y2="-417.241379%" id="linearGradient-5">
            <stop stop-color="#181A19" offset="0%"></stop>
            <stop stop-color="#181A19" stop-opacity="0.28" offset="58%"></stop>
            <stop stop-color="#181A19" stop-opacity="0" offset="100%"></stop>
        </linearGradient>
        <linearGradient x1="84.8703632%" y1="108.534997%" x2="4.31065232%" y2="4.7704792%" id="linearGradient-6">
            <stop stop-color="#181A19" offset="0%"></stop>
            <stop stop-color="#181A19" stop-opacity="0.28" offset="58%"></stop>
            <stop stop-color="#181A19" stop-opacity="0" offset="100%"></stop>
        </linearGradient>
        <linearGradient x1="96.1209435%" y1="31.895401%" x2="12.1443897%" y2="75.0380569%" id="linearGradient-7">
            <stop stop-color="#FFFFFF" stop-opacity="0" offset="3%"></stop>
            <stop stop-color="#FFFFFF" stop-opacity="0.41" offset="5%"></stop>
            <stop stop-color="#FFFFFF" offset="7%"></stop>
            <stop stop-color="#FFFFFF" stop-opacity="0.9" offset="9%"></stop>
            <stop stop-color="#FFFFFF" stop-opacity="0.69" offset="11%"></stop>
            <stop stop-color="#FFFFFF" stop-opacity="0.51" offset="14%"></stop>
            <stop stop-color="#FFFFFF" stop-opacity="0.35" offset="17%"></stop>
            <stop stop-color="#FFFFFF" stop-opacity="0.22" offset="20%"></stop>
            <stop stop-color="#FFFFFF" stop-opacity="0.13" offset="23%"></stop>
            <stop stop-color="#FFFFFF" stop-opacity="0.06" offset="26%"></stop>
            <stop stop-color="#FFFFFF" stop-opacity="0.01" offset="29%"></stop>
            <stop stop-color="#FFFFFF" stop-opacity="0" offset="33%"></stop>
        </linearGradient>
        <linearGradient x1="7.81083286%" y1="80.2993563%" x2="96.8987614%" y2="28.650933%" id="linearGradient-8">
            <stop stop-color="#181A19" stop-opacity="0" offset="0%"></stop>
            <stop stop-color="#181A19" stop-opacity="0.23" offset="4%"></stop>
            <stop stop-color="#181A19" stop-opacity="0.8" offset="16%"></stop>
            <stop stop-color="#181A19" offset="26%"></stop>
            <stop stop-color="#181A19" stop-opacity="0.63" offset="44%"></stop>
            <stop stop-color="#181A19" stop-opacity="0" offset="82%"></stop>
        </linearGradient>
        <radialGradient cx="42.1656298%" cy="46.5253211%" fx="42.1656298%" fy="46.5253211%" r="93.6193852%" gradientTransform="translate(0.421656,0.465253),scale(1.000000,0.950385),translate(-0.421656,-0.465253)" id="radialGradient-9">
            <stop stop-color="#181A19" stop-opacity="0" offset="0%"></stop>
            <stop stop-color="#181A19" stop-opacity="0.15" offset="27%"></stop>
            <stop stop-color="#181A19" stop-opacity="0.61" offset="53%"></stop>
            <stop stop-color="#181A19" offset="68%"></stop>
            <stop stop-color="#181A19" stop-opacity="0.88" offset="82%"></stop>
            <stop stop-color="#181A19" stop-opacity="0.49" offset="92%"></stop>
            <stop stop-color="#181A19" stop-opacity="0" offset="100%"></stop>
        </radialGradient>
        <linearGradient x1="44.801904%" y1="42.0893462%" x2="65.4875282%" y2="72.726594%" id="linearGradient-10">
            <stop stop-color="#FFFFFF" stop-opacity="0" offset="0%"></stop>
            <stop stop-color="#FFFFFF" offset="100%"></stop>
        </linearGradient>
        <linearGradient x1="44.8380012%" y1="42.1268884%" x2="65.5245217%" y2="72.7386138%" id="linearGradient-11">
            <stop stop-color="#FFFFFF" stop-opacity="0" offset="0%"></stop>
            <stop stop-color="#FFFFFF" offset="100%"></stop>
        </linearGradient>
        <linearGradient x1="44.8481064%" y1="42.1934795%" x2="65.4947437%" y2="72.7208712%" id="linearGradient-12">
            <stop stop-color="#FFFFFF" stop-opacity="0" offset="0%"></stop>
            <stop stop-color="#FFFFFF" offset="100%"></stop>
        </linearGradient>
        <linearGradient x1="44.8553612%" y1="42.2620847%" x2="65.4963112%" y2="72.672633%" id="linearGradient-13">
            <stop stop-color="#FFFFFF" stop-opacity="0" offset="0%"></stop>
            <stop stop-color="#FFFFFF" offset="100%"></stop>
        </linearGradient>
        <linearGradient x1="44.9399333%" y1="42.2604065%" x2="65.5040587%" y2="72.6727773%" id="linearGradient-14">
            <stop stop-color="#FFFFFF" stop-opacity="0" offset="0%"></stop>
            <stop stop-color="#FFFFFF" offset="100%"></stop>
        </linearGradient>
        <linearGradient x1="44.9706596%" y1="42.2824533%" x2="65.5120792%" y2="72.6023693%" id="linearGradient-15">
            <stop stop-color="#FFFFFF" stop-opacity="0" offset="0%"></stop>
            <stop stop-color="#FFFFFF" offset="100%"></stop>
        </linearGradient>
        <linearGradient x1="44.9173042%" y1="42.2606773%" x2="65.4304982%" y2="72.5788139%" id="linearGradient-16">
            <stop stop-color="#FFFFFF" stop-opacity="0" offset="0%"></stop>
            <stop stop-color="#FFFFFF" offset="100%"></stop>
        </linearGradient>
        <linearGradient x1="45.0264207%" y1="42.2446481%" x2="65.5268942%" y2="72.4821214%" id="linearGradient-17">
            <stop stop-color="#FFFFFF" stop-opacity="0" offset="0%"></stop>
            <stop stop-color="#FFFFFF" offset="100%"></stop>
        </linearGradient>
        <linearGradient x1="45.0470111%" y1="42.2860222%" x2="65.5670301%" y2="72.6030892%" id="linearGradient-18">
            <stop stop-color="#FFFFFF" stop-opacity="0" offset="0%"></stop>
            <stop stop-color="#FFFFFF" offset="100%"></stop>
        </linearGradient>
        <linearGradient x1="44.9441384%" y1="42.3204615%" x2="65.4599828%" y2="72.5809895%" id="linearGradient-19">
            <stop stop-color="#FFFFFF" stop-opacity="0" offset="0%"></stop>
            <stop stop-color="#FFFFFF" offset="100%"></stop>
        </linearGradient>
    </defs>
    <g id="Design" stroke="none" stroke-width="1" fill="none" fill-rule="evenodd">
        <g id="Recode-logo_red_outlines" transform="translate(0.000000, -1.000000)">
            <g id="Group-32">
                <g>
                    <g id="Ресурс-1" transform="translate(0.000000, -0.000000)">
                        <path d="M33.9818182,14.4218182 L30.36,6.41454545 C28.1781818,1.69090909 20.5418182,-0.130909091 12.6654545,2.91272727 C12.5454545,2.91272727 12.72,3.92727273 12.72,3.92727273 L20.52,6.38181818 L17.8145455,12.9272727 C24.72,10.32 31.4836364,11.3454545 33.4254545,15.5018182 C35.52,20.0072727 31.1672727,26.4872727 23.6945455,29.9672727 C16.2218182,33.4472727 8.42181818,32.6290909 6.36,28.1127273 C4.82181818,24.84 6.76363636,20.4763636 10.8436364,16.9854545 L12.3163636,20.1272727 L17.4545455,7.83272727 L4.72363636,3.84 L6.19636364,7.00363636 C2.48727273,10.5163636 -0.349090909,15.36 1.38545455,19.0036364 L5.30181818,27.9709091 C7.63636364,32.9454545 15.7090909,34.2218182 24,30.36 C32.2909091,26.4981818 36.3054545,19.4072727 33.9818182,14.4218182 Z" id="Path" fill="#701B1D"></path>
                        <path d="M33.9818182,14.4218182 L30.36,6.41454545 C28.1781818,1.69090909 20.5418182,-0.130909091 12.6654545,2.91272727 C12.5454545,2.91272727 12.72,3.92727273 12.72,3.92727273 L20.52,6.38181818 L17.8145455,12.9272727 C24.72,10.32 31.4836364,11.3454545 33.4254545,15.5018182 C35.52,20.0072727 31.1672727,26.4872727 23.6945455,29.9672727 C16.2218182,33.4472727 8.42181818,32.6290909 6.36,28.1127273 C4.82181818,24.84 6.76363636,20.4763636 10.8436364,16.9854545 L12.3163636,20.1272727 L17.4545455,7.83272727 L4.72363636,3.84 L6.19636364,7.00363636 C2.48727273,10.5163636 -0.349090909,15.36 1.38545455,19.0036364 L5.30181818,27.9709091 C7.63636364,32.9454545 15.7090909,34.2218182 24,30.36 C32.2909091,26.4981818 36.3054545,19.4072727 33.9818182,14.4218182 Z" id="Path" fill="url(#linearGradient-1)" style="mix-blend-mode: darken;" opacity="0.39"></path>
                        <path d="M33.9818182,14.4218182 L30.36,6.41454545 C28.1781818,1.69090909 20.5418182,-0.130909091 12.6654545,2.91272727 C12.5454545,2.91272727 12.72,3.92727273 12.72,3.92727273 L20.52,6.38181818 L17.8145455,12.9272727 C24.72,10.32 31.4836364,11.3454545 33.4254545,15.5018182 C35.52,20.0072727 31.1672727,26.4872727 23.6945455,29.9672727 C16.2218182,33.4472727 8.42181818,32.6290909 6.36,28.1127273 C4.82181818,24.84 6.76363636,20.4763636 10.8436364,16.9854545 L12.3163636,20.1272727 L17.4545455,7.83272727 L4.72363636,3.84 L6.19636364,7.00363636 C2.48727273,10.5163636 -0.349090909,15.36 1.38545455,19.0036364 L5.30181818,27.9709091 C7.63636364,32.9454545 15.7090909,34.2218182 24,30.36 C32.2909091,26.4981818 36.3054545,19.4072727 33.9818182,14.4218182 Z" id="Path" fill="url(#linearGradient-2)" style="mix-blend-mode: overlay;" opacity="0.7"></path>
                        <polygon id="Path" fill="#EB3339" points="19.8327273 6.16363636 17.4 12.0327273 17.8145455 12.9163636 20.52 6.38181818"></polygon>
                        <path d="M12.3163636,20.1163636 L10.8436364,16.9745455 C10.44,17.3236364 10.0472727,17.6836364 9.68727273,18.0654545 L10.6581818,20.1381818 L12.3163636,20.1163636 Z" id="Path" fill="#D8292F"></path>
                        <path d="M34.9090909,14.8145455 L30.5454545,5.52 C28.3636364,0.730909091 20.2909091,-0.305454545 12.3272727,3.04363636 L12.7309091,3.92727273 C19.8981818,0.949090909 27.0872727,1.88727273 29.0945455,6.19636364 C31.2,10.7018182 26.8472727,17.1818182 19.3745455,20.6618182 C11.9018182,24.1418182 4.10181818,23.3236364 2.04,18.8181818 C0.501818182,15.5454545 2.44363636,11.1818182 6.52363636,7.69090909 L6.08727273,6.73090909 L4.72363636,3.84 L3.06545455,3.84 L4.88727273,7.75636364 C1.8,10.5927273 0,13.8872727 0,16.8327273 L0,16.8327273 L0,38.4109091 L13.7345455,38.4109091 L13.7345455,33.2072727 C15.1622832,33.2320255 16.5885745,33.104025 17.9890909,32.8254545 L20.9018182,38.4109091 L35.3236364,38.4109091 L29.5963636,27.4145455 C34.3309091,23.5309091 36.6109091,18.5454545 34.9090909,14.8145455 Z" id="Path" fill="url(#linearGradient-3)"></path>
                        <g id="Group" opacity="0.25" style="mix-blend-mode: multiply;">
                            <polygon id="Path" fill="url(#linearGradient-4)" points="19.8327273 6.16363636 17.4 12.0327273 17.8145455 12.9163636 20.52 6.38181818"></polygon>
                            <path d="M12.3163636,20.1163636 L10.8436364,16.9745455 C10.44,17.3236364 10.0472727,17.6836364 9.68727273,18.0654545 L10.6581818,20.1381818 L12.3163636,20.1163636 Z" id="Path" fill="url(#linearGradient-5)"></path>
                            <path d="M34.9090909,14.8145455 L30.5454545,5.52 C28.3636364,0.730909091 20.2909091,-0.305454545 12.3272727,3.04363636 L12.7309091,3.92727273 C19.8981818,0.949090909 27.0872727,1.88727273 29.0945455,6.19636364 C31.2,10.7018182 26.8472727,17.1818182 19.3745455,20.6618182 C11.9018182,24.1418182 4.10181818,23.3236364 2.04,18.8181818 C0.501818182,15.5454545 2.44363636,11.1818182 6.52363636,7.69090909 L6.08727273,6.73090909 L4.72363636,3.84 L3.06545455,3.84 L4.88727273,7.75636364 C1.8,10.5927273 0,13.8872727 0,16.8327273 L0,16.8327273 L0,38.4109091 L13.7345455,38.4109091 L13.7345455,33.2072727 C15.1622832,33.2320255 16.5885745,33.104025 17.9890909,32.8254545 L20.9018182,38.4109091 L35.3236364,38.4109091 L29.5963636,27.4145455 C34.3309091,23.5309091 36.6109091,18.5454545 34.9090909,14.8145455 Z" id="Path" fill="url(#linearGradient-6)"></path>
                        </g>
                        <path d="M34.9090909,14.8145455 L30.5454545,5.52 C28.3636364,0.730909091 20.2909091,-0.305454545 12.3272727,3.04363636 L12.7309091,3.92727273 C19.8981818,0.949090909 27.0872727,1.88727273 29.0945455,6.19636364 C31.2,10.7018182 26.8472727,17.1818182 19.3745455,20.6618182 C11.9018182,24.1418182 4.10181818,23.3236364 2.04,18.8181818 C0.501818182,15.5454545 2.44363636,11.1818182 6.52363636,7.69090909 L6.08727273,6.73090909 L4.72363636,3.84 L3.06545455,3.84 L4.88727273,7.75636364 C1.8,10.5927273 0,13.8872727 0,16.8327273 L0,16.8327273 L0,38.4109091 L13.7345455,38.4109091 L13.7345455,33.2072727 C15.1622832,33.2320255 16.5885745,33.104025 17.9890909,32.8254545 L20.9018182,38.4109091 L35.3236364,38.4109091 L29.5963636,27.4145455 C34.3309091,23.5309091 36.6109091,18.5454545 34.9090909,14.8145455 Z" id="Path" fill="url(#linearGradient-7)" style="mix-blend-mode: lighten;" opacity="0.44"></path>
                        <path d="M34.9090909,14.8145455 L30.5454545,5.52 C28.3636364,0.730909091 20.2909091,-0.305454545 12.3272727,3.04363636 L12.7309091,3.92727273 C19.8981818,0.949090909 27.0872727,1.88727273 29.0945455,6.19636364 C31.2,10.7018182 26.8472727,17.1818182 19.3745455,20.6618182 C11.9018182,24.1418182 4.10181818,23.3236364 2.04,18.8181818 C0.501818182,15.5454545 2.44363636,11.1818182 6.52363636,7.69090909 L6.08727273,6.73090909 L4.72363636,3.84 L3.06545455,3.84 L4.88727273,7.75636364 C1.8,10.5927273 0,13.8872727 0,16.8327273 L0,16.8327273 L0,38.4109091 L13.7345455,38.4109091 L13.7345455,33.2072727 C15.1622832,33.2320255 16.5885745,33.104025 17.9890909,32.8254545 L20.9018182,38.4109091 L35.3236364,38.4109091 L29.5963636,27.4145455 C34.3309091,23.5309091 36.6109091,18.5454545 34.9090909,14.8145455 Z" id="Path" fill="url(#linearGradient-8)" style="mix-blend-mode: multiply;" opacity="0"></path>
                        <path d="M34.9090909,14.8145455 L30.5454545,5.52 C28.3636364,0.730909091 20.2909091,-0.305454545 12.3272727,3.04363636 L12.7309091,3.92727273 C19.8981818,0.949090909 27.0872727,1.88727273 29.0945455,6.19636364 C31.2,10.7018182 26.8472727,17.1818182 19.3745455,20.6618182 C11.9018182,24.1418182 4.10181818,23.3236364 2.04,18.8181818 C0.501818182,15.5454545 2.44363636,11.1818182 6.52363636,7.69090909 L6.08727273,6.73090909 L4.72363636,3.84 L3.06545455,3.84 L4.88727273,7.75636364 C1.8,10.5927273 0,13.8872727 0,16.8327273 L0,16.8327273 L0,38.4109091 L13.7345455,38.4109091 L13.7345455,33.2072727 C15.1622832,33.2320255 16.5885745,33.104025 17.9890909,32.8254545 L20.9018182,38.4109091 L35.3236364,38.4109091 L29.5963636,27.4145455 C34.3309091,23.5309091 36.6109091,18.5454545 34.9090909,14.8145455 Z" id="Path" fill="url(#radialGradient-9)" style="mix-blend-mode: multiply;" opacity="0.15"></path>
                        <g id="Group" opacity="0.68" style="mix-blend-mode: lighten;" transform="translate(0.000000, 1.090909)">
                            <path d="M10.3090909,23.16 C5.66181818,23.16 2.18181818,21.3927273 0.741818182,18.3272727 C-0.698181818,15.2618182 0.807272727,11.4545455 4.13454545,7.77818182 L4.72363636,8.32363636 C1.8,11.5963636 0.796363636,15.0654545 2.02909091,17.7272727 C3.26181818,20.3890909 6.24,21.7309091 10.3090909,21.7309091 C13.450023,21.6707373 16.5400284,20.9261577 19.3636364,19.5490909 C22.7389891,18.0599459 25.6570859,15.6991115 27.8181818,12.7090909 C29.6509091,9.97090909 30.1090909,7.25454545 29.0836364,5.07272727 C28.0581818,2.89090909 25.2872727,1.30909091 21.6545455,1.09090909 L21.6545455,0.0763636364 C25.8436364,0.283636364 29.0181818,1.63636364 30.3818182,4.44 C31.6145455,7.09090909 31.1236364,10.2872727 29.0072727,13.4509091 C26.7040154,16.6616719 23.5858972,19.1998501 19.9745455,20.8036364 C16.96039,22.2770188 13.663152,23.0808601 10.3090909,23.16 Z" id="Path" fill="url(#linearGradient-10)" opacity="0"></path>
                            <path d="M28.8872727,13.4945455 C26.6010411,16.6750582 23.5098898,19.1901483 19.9309091,20.7818182 C16.9392609,22.2203008 13.6717626,22.9943779 10.3527273,23.0509091 C5.73818182,23.0509091 2.28,21.3054545 0.861818182,18.2618182 C-0.556363636,15.2181818 0.861818182,11.4654545 4.2,7.83272727 L4.72363636,8.32363636 C1.8,11.5963636 0.796363636,15.0654545 2.02909091,17.7272727 C3.26181818,20.3890909 6.24,21.7309091 10.3090909,21.7309091 C13.450023,21.6707373 16.5400284,20.9261577 19.3636364,19.5490909 C22.7389891,18.0599459 25.6570859,15.6991115 27.8181818,12.7090909 C29.6509091,9.97090909 30.1090909,7.25454545 29.0836364,5.07272727 C28.0581818,2.89090909 25.2872727,1.30909091 21.6545455,1.09090909 L21.6545455,0.163636364 C25.7672727,0.381818182 28.8981818,1.71272727 30.2072727,4.52727273 C31.4727273,7.17818182 30.9927273,10.3527273 28.8872727,13.4945455 Z" id="Path" fill="url(#linearGradient-11)" opacity="0.11"></path>
                            <path d="M28.7672727,13.4618182 C26.5084639,16.6324895 23.4424473,19.1410485 19.8872727,20.7272727 C16.9150335,22.1330784 13.6732342,22.877464 10.3854545,22.9090909 C5.82545455,22.9090909 2.4,21.2072727 0.992727273,18.1854545 C-0.414545455,15.1636364 0.992727273,11.4763636 4.26545455,7.89818182 L4.73454545,8.32363636 C1.81090909,11.5963636 0.807272727,15.0654545 2.04,17.7272727 C3.27272727,20.3890909 6.25090909,21.7309091 10.32,21.7309091 C13.4609321,21.6707373 16.5509375,20.9261577 19.3745455,19.5490909 C22.7498982,18.0599459 25.667995,15.6991115 27.8290909,12.7090909 C29.6618182,9.97090909 30.12,7.25454545 29.0945455,5.07272727 C28.0690909,2.89090909 25.2872727,1.30909091 21.6545455,1.09090909 L21.6545455,0.250909091 C25.7018182,0.48 28.7890909,1.8 30.0763636,4.61454545 C31.3636364,7.42909091 30.8509091,10.3527273 28.7672727,13.4618182 Z" id="Path" fill="url(#linearGradient-12)" opacity="0.22"></path>
                            <path d="M28.6472727,13.4290909 C26.401546,16.5578388 23.3627855,19.0317739 19.8436364,20.5963636 C16.8989843,21.9925276 13.6876998,22.7367418 10.4290909,22.7781818 C5.90181818,22.7781818 2.50909091,21.0654545 1.11272727,18.0763636 C-0.283636364,15.0872727 1.11272727,11.4436364 4.32,7.90909091 L4.72363636,8.28 C1.8,11.5527273 0.796363636,15.0218182 2.02909091,17.6836364 C3.26181818,20.3454545 6.24,21.6872727 10.3090909,21.6872727 C13.450023,21.6271009 16.5400284,20.8825213 19.3636364,19.5054545 C22.7389891,18.0163096 25.6570859,15.6554752 27.8181818,12.6654545 C29.6509091,9.92727273 30.1090909,7.21090909 29.0836364,5.02909091 C28.0581818,2.84727273 25.2872727,1.30909091 21.6545455,1.09090909 L21.6545455,0.349090909 C25.6472727,0.578181818 28.6909091,1.88727273 29.9563636,4.61454545 C31.2218182,7.34181818 30.72,10.3527273 28.6472727,13.4290909 Z" id="Path" fill="url(#linearGradient-13)" opacity="0.33"></path>
                            <path d="M28.5272727,13.4072727 C26.2998408,16.5043059 23.2874174,18.9519 19.8,20.4981818 C16.8818866,21.8927873 13.6957754,22.6372059 10.4618182,22.68 C5.97818182,22.68 2.60727273,20.9781818 1.22181818,18.0109091 C-0.163636364,15.0436364 1.22181818,11.4654545 4.37454545,7.97454545 L4.71272727,8.29090909 C1.78909091,11.5636364 0.785454545,15.0327273 2.01818182,17.6945455 C3.25090909,20.3563636 6.22909091,21.6981818 10.2981818,21.6981818 C13.4391139,21.63801 16.5291193,20.8934304 19.3527273,19.5163636 C22.72808,18.0272186 25.6461768,15.6663842 27.8072727,12.6763636 C29.64,9.93818182 30.0981818,7.22181818 29.0727273,5.04 C28.0472727,2.85818182 25.2872727,1.30909091 21.6545455,1.09090909 L21.6545455,0.436363636 C25.5818182,0.676363636 28.5709091,1.97454545 29.8254545,4.66909091 C31.08,7.36363636 30.5454545,10.3527273 28.5272727,13.4072727 Z" id="Path" fill="url(#linearGradient-14)" opacity="0.44"></path>
                            <path d="M28.3636364,13.3745455 C26.1572867,16.4434758 23.1757305,18.8716371 19.7236364,20.4109091 C16.8332129,21.796202 13.6775444,22.5404634 10.4727273,22.5927273 C6.02181818,22.5927273 2.68363636,20.9127273 1.32,17.9781818 C-0.0436363636,15.0436364 1.32,11.52 4.40727273,8.06181818 L4.68,8.32363636 C1.75636364,11.5963636 0.752727273,15.0654545 1.98545455,17.7272727 C3.21818182,20.3890909 6.19636364,21.7309091 10.2654545,21.7309091 C13.4063866,21.6707373 16.496392,20.9261577 19.32,19.5490909 C22.6953527,18.0599459 25.6134495,15.6991115 27.7745455,12.7090909 C29.6072727,9.97090909 30.0654545,7.25454545 29.04,5.07272727 C28.0145455,2.89090909 25.2872727,1.30909091 21.6545455,1.09090909 L21.6545455,0.523636364 C25.5272727,0.774545455 28.4727273,2.05090909 29.7054545,4.71272727 C30.9381818,7.37454545 30.4472727,10.3418182 28.3636364,13.3745455 Z" id="Path" fill="url(#linearGradient-15)" opacity="0.56"></path>
                            <path d="M28.2872727,13.3418182 C26.1041232,16.3863098 23.1477977,18.7927964 19.7236364,20.3127273 C16.8622867,21.6926402 13.7361871,22.4369496 10.56,22.4945455 C6.19636364,22.4945455 2.84727273,20.8254545 1.48363636,17.9127273 C0.12,15 1.48363636,11.5418182 4.51636364,8.09454545 L4.72363636,8.29090909 C1.8,11.5636364 0.796363636,15.0327273 2.02909091,17.6945455 C3.26181818,20.3563636 6.24,21.6981818 10.3090909,21.6981818 C13.450023,21.63801 16.5400284,20.8934304 19.3636364,19.5163636 C22.7389891,18.0272186 25.6570859,15.6663842 27.8181818,12.6763636 C29.6509091,9.93818182 30.1090909,7.22181818 29.0836364,5.04 C28.0581818,2.85818182 25.2872727,1.30909091 21.6545455,1.09090909 L21.6545455,0.621818182 C25.4836364,0.905454545 28.3636364,2.18181818 29.5963636,4.8 C30.8290909,7.41818182 30.3054545,10.3418182 28.2872727,13.3418182 Z" id="Path" fill="url(#linearGradient-16)" opacity="0.67"></path>
                            <path d="M28.1672727,13.32 C25.9918703,16.3428518 23.0460319,18.7273988 19.6363636,20.2254545 C16.8029282,21.5967339 13.7071194,22.3409187 10.56,22.4072727 C6.19636364,22.4072727 2.92363636,20.7490909 1.57090909,17.8690909 C0.218181818,14.9890909 1.57090909,11.5745455 4.52727273,8.21454545 L4.68,8.35636364 C1.75636364,11.6290909 0.752727273,15.0981818 1.98545455,17.76 C3.21818182,20.4218182 6.19636364,21.7636364 10.2654545,21.7636364 C13.4063866,21.7034645 16.496392,20.9588849 19.32,19.5818182 C22.6953527,18.0926732 25.6134495,15.7318388 27.7745455,12.7418182 C29.6072727,10.0036364 30.0654545,7.28727273 29.04,5.10545455 C28.0145455,2.92363636 25.2872727,1.30909091 21.6545455,1.09090909 L21.6545455,0.741818182 C25.4181818,1.00363636 28.2654545,2.25818182 29.4545455,4.84363636 C30.6436364,7.42909091 30.1745455,10.3418182 28.1672727,13.32 Z" id="Path" fill="url(#linearGradient-17)" opacity="0.78"></path>
                            <path d="M28.0581818,13.2872727 C25.9080122,16.2745871 23.0011519,18.6354697 19.6363636,20.1272727 C16.8289172,21.4775791 13.7621499,22.2033311 10.6472727,22.2545455 C6.28363636,22.2545455 3.06545455,20.6181818 1.73454545,17.76 C0.403636364,14.9018182 1.73454545,11.5527273 4.63636364,8.23636364 L4.72363636,8.32363636 C1.8,11.5963636 0.796363636,15.0654545 2.02909091,17.7272727 C3.26181818,20.3890909 6.24,21.7309091 10.3090909,21.7309091 C13.450023,21.6707373 16.5400284,20.9261577 19.3636364,19.5490909 C22.7389891,18.0599459 25.6570859,15.6991115 27.8181818,12.7090909 C29.6509091,9.97090909 30.1090909,7.25454545 29.0836364,5.07272727 C28.0581818,2.89090909 25.2872727,1.30909091 21.6545455,1.09090909 L21.6545455,0.829090909 C25.3418182,1.10181818 28.1454545,2.34545455 29.2909091,4.88727273 C30.4363636,7.42909091 30.0327273,10.3418182 28.0581818,13.2872727 Z" id="Path" fill="url(#linearGradient-18)" opacity="0.89"></path>
                            <path d="M27.9381818,13.2545455 C29.8909091,10.3418182 30.3490909,7.38545455 29.2036364,4.94181818 C28.0581818,2.49818182 25.2872727,1.18909091 21.6654545,0.927272727 L21.6654545,1.09090909 C25.2981818,1.27636364 28.0036364,2.72727273 29.0945455,5.07272727 C30.12,7.25454545 29.6618182,9.96 27.8290909,12.7090909 C25.667995,15.6991115 22.7498982,18.0599459 19.3745455,19.5490909 C16.5509375,20.9261577 13.4609321,21.6707373 10.32,21.7309091 C6.25090909,21.7309091 3.22909091,20.2690909 2.04,17.7272727 C0.850909091,15.1854545 1.81090909,11.5527273 4.73454545,8.32363636 L4.73454545,8.32363636 C1.86545455,11.5963636 0.567272727,14.8690909 1.89818182,17.7272727 C3.22909091,20.5854545 6.40363636,22.1454545 10.6909091,22.1454545 C13.7897003,22.0971863 16.8413506,21.378932 19.6363636,20.04 C22.9549875,18.5521121 25.81964,16.210701 27.9381818,13.2545455 Z" id="Path" fill="url(#linearGradient-19)"></path>
                        </g>
                    </g>
                    <path d="M61.0419458,30.3 L57.375194,30.3 L51.6752258,23.4376854 L51.606,23.246 L51.606,21.89 L54.502,21.89 C56.0430801,21.89 56.996,20.8581399 56.996,19.506 C56.996,18.1182877 56.0054169,16.946 54.502,16.946 L51.392,16.946 L51.392,30.3 L48.592,30.3 L48.592,14.102 L54.502,14.102 C57.712226,14.102 59.818,16.5471916 59.818,19.506 C59.818,21.8438225 58.4129406,23.7835272 56.0846715,24.4006192 L61.0419458,30.3 Z M73.9933407,24.6288587 L73.9425247,24.866 L63.9386291,24.866 C64.1140383,26.6566098 65.8394388,28.006 67.628,28.006 C69.0802676,28.006 70.2880076,27.361511 70.9043358,26.1866352 L70.9886035,26.026 L73.8138304,26.026 L73.6753814,26.424463 C72.7831661,28.9923022 70.3621535,30.52 67.606,30.52 C64.0078419,30.52 61.168,27.985153 61.168,24.06 C61.168,20.1185628 63.9799888,17.622 67.65,17.622 C71.0733865,17.622 73.8047923,19.8902981 74.0427993,23.5038264 C74.0879612,23.8740876 74.0685612,24.2778297 73.9933407,24.6288587 Z M71.0969651,22.484 C70.643401,20.9269857 69.3469961,20.114 67.65,20.114 C65.9324631,20.114 64.5774368,20.9433042 64.0988956,22.484 L71.0969651,22.484 Z M88.903944,25.168 L88.8367914,25.5236599 C88.2581062,28.5885482 85.6814093,30.4505887 82.5842549,30.4759698 C78.9354067,30.5277265 76.054,28.0056482 76.054,24.038 C76.054,20.0943815 78.8845515,17.6 82.536,17.6 C85.6502857,17.6 88.2571104,19.4827067 88.8368617,22.5747134 L88.9034779,22.93 L86.0922579,22.93 L86.0310411,22.7106397 C85.5744124,21.0743867 84.195975,20.114 82.558,20.114 C80.446184,20.114 78.81,21.6202344 78.81,24.038 C78.81,26.484523 80.432481,27.984 82.58,27.984 C84.2119905,27.984 85.5732622,27.0277348 86.0310411,25.3873603 L86.0922579,25.168 L88.903944,25.168 Z M103.86,24.06 C103.86,28.009956 100.90582,30.52 97.114,30.52 C93.3751783,30.52 90.434,27.9912628 90.434,24.06 C90.434,20.110044 93.3881804,17.6 97.18,17.6 C100.932712,17.6 103.86,20.1225941 103.86,24.06 Z M93.19,24.06 C93.19,26.4457227 94.8945343,27.9608643 97.1170611,27.9840156 C99.3710054,28.007015 101.126,26.4728871 101.126,24.06 C101.126,21.6522684 99.3969386,20.114 97.18,20.114 C94.9146416,20.114 93.19,21.6319208 93.19,24.06 Z M116.056,14.3 L118.812,14.3 L118.812,30.3 L116.056,30.3 L116.056,29.2112797 C115.164244,30.0497894 113.849991,30.4763206 112.374,30.498 C108.236691,30.498 105.738,27.896004 105.738,23.994 C105.738,20.245066 108.330032,17.6 112.352,17.6 C113.901057,17.6 115.124116,17.9599447 116.056,18.843032 L116.056,14.3 Z M116.056,24.038 C116.056,21.5874978 114.425244,20.0690042 112.313084,20.0919569 C110.066771,20.13003 108.516451,21.8627412 108.493988,23.9966315 C108.472553,26.4402637 109.995423,28.0435875 112.455335,27.984074 C114.514752,27.9383092 116.056,26.4379276 116.056,24.038 Z M134.087341,24.6288587 L134.036525,24.866 L124.032629,24.866 C124.208038,26.6566098 125.933439,28.006 127.722,28.006 C129.174268,28.006 130.382008,27.361511 130.998336,26.1866352 L131.082603,26.026 L133.90783,26.026 L133.769381,26.424463 C132.877166,28.9923022 130.456154,30.52 127.7,30.52 C124.101842,30.52 121.262,27.985153 121.262,24.06 C121.262,20.1185628 124.073989,17.622 127.744,17.622 C131.167387,17.622 133.898792,19.8902981 134.136799,23.5038264 C134.181961,23.8740876 134.162561,24.2778297 134.087341,24.6288587 Z M124.192896,22.484 L131.190965,22.484 C130.737401,20.9269857 129.440996,20.114 127.744,20.114 C126.026463,20.114 124.671437,20.9433042 124.192896,22.484 Z" id="Recode" fill="#D8292F" fill-rule="nonzero"></path>
                </g>
            </g>
        </g>
    </g>
</svg>