<?xml version="1.0" encoding="utf-8"?>
<svg viewBox="0 0 158.75 95.250003" xmlns="http://www.w3.org/2000/svg" style='transform: scale(0.75)'>
  <rect x="6.055" y="6.219" width="146.639" height="82.812" style="fill: rgb(3, 0, 0);" transform="matrix(1, 0, -0.002578, 1, 0.122769, 0)"/>
  <g id="text826" style="font-weight: bold; font-size: 79.2575px; font-family: &quot;Trafikkalfabetet Pro&quot;; letter-spacing: 0px; word-spacing: 0px; text-anchor: middle; fill: rgb(0, 0, 0); stroke-width: 0.264583px" aria-label="404">
    <path id="path4802" style="stroke-width: 0px; fill: rgb(255, 255, 255);" d="M 52.560556,54.687697 H 48.676937 V 23.777257 H 38.373457 L 17.68724,55.242499 v 7.212436 h 22.667655 v 8.876844 h 8.322042 v -8.876844 h 3.883619 z m -25.203897,0 12.998236,-19.814385 v 19.814385 z"/>
    <path id="path4804" style="stroke-width: 0px; fill: rgb(255, 255, 255);" d="m 61.260308,47.554518 c 0,17.119628 7.846496,24.886867 17.436659,24.886867 9.590162,0 17.436658,-7.767239 17.436658,-24.886867 0,-17.119628 -7.846496,-24.886867 -17.436658,-24.886867 -9.590163,0 -17.436659,7.767239 -17.436659,24.886867 z m 8.322042,0 c 0,-9.590162 3.011786,-17.119628 9.114617,-17.119628 6.10283,0 9.114616,7.529466 9.114616,17.119628 0,9.590162 -3.011786,17.119628 -9.114616,17.119628 -6.102831,0 -9.114617,-7.529466 -9.114617,-17.119628 z"/>
    <path id="path4806" style="stroke-width: 0px; fill: rgb(255, 255, 255);" d="m 139.71288,54.687697 h -3.88361 v -30.91044 h -10.30348 l -20.68622,31.465242 v 7.212436 h 22.66765 v 8.876844 h 8.32205 v -8.876844 h 3.88361 z m -25.20389,0 12.99823,-19.814385 v 19.814385 z"/>
  </g>
</svg>