<svg xmlns="http://www.w3.org/2000/svg" data-name="Слой 1" viewBox="0 0 400 280"><path d="M0 0h400v280H0z" style="fill:#fff"/><path d="M92.74 139.93c18.21-5 17.5-21.43 17.5-21.43 0-25-23.93-27.07-23.93-27.07l-56.06.06v97.08l58.2-.06c23.93-2.15 24.65-25 24.65-25 .35-21.44-20.36-23.58-20.36-23.58m-34.81-30.71h16.42s6.79 0 6.43 11.39c-.29 9.29-7.14 8.91-7.14 8.91H57.93Zm17 61.4H58.17v-21.68l17.52.06s7.23-.06 6.85 12.13c-.27 9.87-7.54 9.49-7.54 9.49Zm91.46 17.95V91.74h68.04v17.56l-40.81.02.29 23.14 37.07-.05-.03 17.9h-37.24v38.26zm120.36-79.01V91.55h83.2l.05 18.01h-28.79v79.01h-27.67v-79.04zm-162.13-18v20.66l20.53-20.66Zm27.66-.13-27.66 27.65v69.49h27.68V91.43Zm94.61.13v20.66l20.53-20.66Zm27.65-.13-27.65 27.65v69.49h27.67V91.43Z" style="fill:#3b499f"/></svg>