<svg xmlns="http://www.w3.org/2000/svg" width="135px" height="38px" viewBox="0 0 135 38"><defs><linearGradient id="a" x1="7.14419721%" x2="89.5847967%" y1="67.3177635%" y2="24.1403409%"><stop offset="0%" stop-color="#252324"/><stop offset="7.244101%" stop-color="#252324" stop-opacity="0.8585"/><stop offset="51.21%" stop-color="#252324" stop-opacity="0"/><stop offset="93.31%" stop-color="#252324" stop-opacity="0.8629"/><stop offset="100%" stop-color="#252324"/></linearGradient><linearGradient id="b" x1="7.14419721%" x2="89.5847967%" y1="67.3177635%" y2="24.1403409%"><stop offset="0%" stop-color="#FFF" stop-opacity="0"/><stop offset="53.9%" stop-color="#FFF"/><stop offset="100%" stop-color="#FFF" stop-opacity="0"/></linearGradient><linearGradient id="c" x1="55.4826375%" x2="4.83845732%" y1="54.1042266%" y2="114.291048%"><stop offset="0%" stop-color="#FD634C"/><stop offset="100%" stop-color="#D8292F"/></linearGradient><linearGradient id="d" x1="192.118848%" x2="-24.4183255%" y1="424.394184%" y2="-149.273021%"><stop offset="0%" stop-color="#181A19"/><stop offset="58%" stop-color="#181A19" stop-opacity="0.28"/><stop offset="100%" stop-color="#181A19" stop-opacity="0"/></linearGradient><linearGradient id="e" x1="557.36088%" x2="-273.673603%" y1="806.896552%" y2="-417.241379%"><stop offset="0%" stop-color="#181A19"/><stop offset="58%" stop-color="#181A19" stop-opacity="0.28"/><stop offset="100%" stop-color="#181A19" stop-opacity="0"/></linearGradient><linearGradient id="f" x1="84.8703632%" x2="4.31065232%" y1="108.534997%" y2="4.7704792%"><stop offset="0%" stop-color="#181A19"/><stop offset="58%" stop-color="#181A19" stop-opacity="0.28"/><stop offset="100%" stop-color="#181A19" stop-opacity="0"/></linearGradient><linearGradient id="g" x1="96.1209435%" x2="12.1443897%" y1="31.895401%" y2="75.0380569%"><stop offset="3%" stop-color="#FFF" stop-opacity="0"/><stop offset="5%" stop-color="#FFF" stop-opacity="0.41"/><stop offset="7%" stop-color="#FFF"/><stop offset="9%" stop-color="#FFF" stop-opacity="0.9"/><stop offset="11%" stop-color="#FFF" stop-opacity="0.69"/><stop offset="14%" stop-color="#FFF" stop-opacity="0.51"/><stop offset="17%" stop-color="#FFF" stop-opacity="0.35"/><stop offset="20%" stop-color="#FFF" stop-opacity="0.22"/><stop offset="23%" stop-color="#FFF" stop-opacity="0.13"/><stop offset="26%" stop-color="#FFF" stop-opacity="0.06"/><stop offset="29%" stop-color="#FFF" stop-opacity="0.01"/><stop offset="33%" stop-color="#FFF" stop-opacity="0"/></linearGradient><linearGradient id="i" x1="44.8380012%" x2="65.5245217%" y1="42.1268884%" y2="72.7386138%"><stop offset="0%" stop-color="#FFF" stop-opacity="0"/><stop offset="100%" stop-color="#FFF"/></linearGradient><linearGradient id="k" x1="44.8481064%" x2="65.4947437%" y1="42.1934795%" y2="72.7208712%"><stop offset="0%" stop-color="#FFF" stop-opacity="0"/><stop offset="100%" stop-color="#FFF"/></linearGradient><linearGradient id="m" x1="44.8553612%" x2="65.4963112%" y1="42.2620847%" y2="72.672633%"><stop offset="0%" stop-color="#FFF" stop-opacity="0"/><stop offset="100%" stop-color="#FFF"/></linearGradient><linearGradient id="n" x1="44.9399333%" x2="65.5040587%" y1="42.2604065%" y2="72.6727773%"><stop offset="0%" stop-color="#FFF" stop-opacity="0"/><stop offset="100%" stop-color="#FFF"/></linearGradient><linearGradient id="o" x1="44.9706596%" x2="65.5120792%" y1="42.2824533%" y2="72.6023693%"><stop offset="0%" stop-color="#FFF" stop-opacity="0"/><stop offset="100%" stop-color="#FFF"/></linearGradient><linearGradient id="p" x1="44.9173042%" x2="65.4304982%" y1="42.2606773%" y2="72.5788139%"><stop offset="0%" stop-color="#FFF" stop-opacity="0"/><stop offset="100%" stop-color="#FFF"/></linearGradient><linearGradient id="q" x1="45.0264207%" x2="65.5268942%" y1="42.2446481%" y2="72.4821214%"><stop offset="0%" stop-color="#FFF" stop-opacity="0"/><stop offset="100%" stop-color="#FFF"/></linearGradient><linearGradient id="r" x1="45.0470111%" x2="65.5670301%" y1="42.2860222%" y2="72.6030892%"><stop offset="0%" stop-color="#FFF" stop-opacity="0"/><stop offset="100%" stop-color="#FFF"/></linearGradient><linearGradient id="s" x1="44.9441384%" x2="65.4599828%" y1="42.3204615%" y2="72.5809895%"><stop offset="0%" stop-color="#FFF" stop-opacity="0"/><stop offset="100%" stop-color="#FFF"/></linearGradient><radialGradient id="h" cx="42.1656298%" cy="46.5253211%" r="93.6193852%" fx="42.1656298%" fy="46.5253211%" gradientTransform="matrix(1 0 0 .95039 0 .023)"><stop offset="0%" stop-color="#181A19" stop-opacity="0"/><stop offset="27%" stop-color="#181A19" stop-opacity="0.15"/><stop offset="53%" stop-color="#181A19" stop-opacity="0.61"/><stop offset="68%" stop-color="#181A19"/><stop offset="82%" stop-color="#181A19" stop-opacity="0.88"/><stop offset="92%" stop-color="#181A19" stop-opacity="0.49"/><stop offset="100%" stop-color="#181A19" stop-opacity="0"/></radialGradient></defs><g fill="none" fill-rule="evenodd"><path fill="#701B1D" d="M33.982 13.422 30.36 5.415C28.178.69 20.542-1.131 12.665 1.913c-.12 0 .055 1.014.055 1.014l7.8 2.455-2.705 6.545c6.905-2.607 13.669-1.582 15.61 2.575 2.095 4.505-2.258 10.985-9.73 14.465S8.422 31.63 6.36 27.113c-1.538-3.273.404-7.637 4.484-11.128l1.472 3.142 5.139-12.294L4.724 2.84l1.472 3.164c-3.709 3.512-6.545 8.356-4.81 12l3.916 8.967C7.636 31.945 15.709 33.22 24 29.36c8.29-3.862 12.305-10.953 9.982-15.938"/><path fill="url(#a)" d="M33.982 14.422 30.36 6.415C28.178 1.69 20.542-.131 12.665 2.913c-.12 0 .055 1.014.055 1.014l7.8 2.455-2.705 6.545c6.905-2.607 13.669-1.582 15.61 2.575 2.095 4.505-2.258 10.985-9.73 14.465S8.422 32.63 6.36 28.113c-1.538-3.273.404-7.637 4.484-11.128l1.472 3.142 5.139-12.294L4.724 3.84l1.472 3.164c-3.709 3.512-6.545 8.356-4.81 12l3.916 8.967C7.636 32.945 15.709 34.22 24 30.36c8.29-3.862 12.305-10.953 9.982-15.938" opacity="0.39" style="mix-blend-mode:darken" transform="translate(0 -1)"/><path fill="url(#b)" d="M33.982 14.422 30.36 6.415C28.178 1.69 20.542-.131 12.665 2.913c-.12 0 .055 1.014.055 1.014l7.8 2.455-2.705 6.545c6.905-2.607 13.669-1.582 15.61 2.575 2.095 4.505-2.258 10.985-9.73 14.465S8.422 32.63 6.36 28.113c-1.538-3.273.404-7.637 4.484-11.128l1.472 3.142 5.139-12.294L4.724 3.84l1.472 3.164c-3.709 3.512-6.545 8.356-4.81 12l3.916 8.967C7.636 32.945 15.709 34.22 24 30.36c8.29-3.862 12.305-10.953 9.982-15.938" opacity="0.7" style="mix-blend-mode:overlay" transform="translate(0 -1)"/><path fill="#EB3339" d="M19.833 5.164 17.4 11.033l.415.883 2.705-6.534z"/><path fill="#D8292F" d="m12.316 19.116-1.472-3.141c-.404.349-.797.709-1.157 1.09l.971 2.073z"/><path fill="url(#c)" d="M34.91 14.815 30.544 5.52C28.364.73 20.291-.305 12.327 3.044l.404.883c7.167-2.978 14.356-2.04 16.364 2.27 2.105 4.505-2.248 10.985-9.72 14.465S4.102 23.324 2.04 18.818c-1.538-3.273.404-7.636 4.484-11.127l-.437-.96L4.724 3.84H3.065l1.822 3.916C1.8 10.593 0 13.887 0 16.833V38.41h13.735v-5.204a20 20 0 0 0 4.254-.382l2.913 5.586h14.422l-5.728-10.996c4.735-3.884 7.015-8.87 5.313-12.6" transform="translate(0 -1)"/><g opacity="0.25" style="mix-blend-mode:multiply"><path fill="url(#d)" d="M19.833 6.164 17.4 12.033l.415.883 2.705-6.534z" transform="translate(0 -1)"/><path fill="url(#e)" d="m12.316 20.116-1.472-3.141c-.404.349-.797.709-1.157 1.09l.971 2.073z" transform="translate(0 -1)"/><path fill="url(#f)" d="M34.91 14.815 30.544 5.52C28.364.73 20.291-.305 12.327 3.044l.404.883c7.167-2.978 14.356-2.04 16.364 2.27 2.105 4.505-2.248 10.985-9.72 14.465S4.102 23.324 2.04 18.818c-1.538-3.273.404-7.636 4.484-11.127l-.437-.96L4.724 3.84H3.065l1.822 3.916C1.8 10.593 0 13.887 0 16.833V38.41h13.735v-5.204a20 20 0 0 0 4.254-.382l2.913 5.586h14.422l-5.728-10.996c4.735-3.884 7.015-8.87 5.313-12.6" transform="translate(0 -1)"/></g><path fill="url(#g)" d="M34.91 14.815 30.544 5.52C28.364.73 20.291-.305 12.327 3.044l.404.883c7.167-2.978 14.356-2.04 16.364 2.27 2.105 4.505-2.248 10.985-9.72 14.465S4.102 23.324 2.04 18.818c-1.538-3.273.404-7.636 4.484-11.127l-.437-.96L4.724 3.84H3.065l1.822 3.916C1.8 10.593 0 13.887 0 16.833V38.41h13.735v-5.204a20 20 0 0 0 4.254-.382l2.913 5.586h14.422l-5.728-10.996c4.735-3.884 7.015-8.87 5.313-12.6" opacity="0.44" style="mix-blend-mode:lighten" transform="translate(0 -1)"/><path fill="url(#h)" d="M34.91 14.815 30.544 5.52C28.364.73 20.291-.305 12.327 3.044l.404.883c7.167-2.978 14.356-2.04 16.364 2.27 2.105 4.505-2.248 10.985-9.72 14.465S4.102 23.324 2.04 18.818c-1.538-3.273.404-7.636 4.484-11.127l-.437-.96L4.724 3.84H3.065l1.822 3.916C1.8 10.593 0 13.887 0 16.833V38.41h13.735v-5.204a20 20 0 0 0 4.254-.382l2.913 5.586h14.422l-5.728-10.996c4.735-3.884 7.015-8.87 5.313-12.6" opacity="0.15" style="mix-blend-mode:multiply" transform="translate(0 -1)"/><g opacity="0.68" style="mix-blend-mode:lighten"><path fill="url(#i)" d="M28.887 13.495a22.1 22.1 0 0 1-8.956 7.287 23 23 0 0 1-9.578 2.269c-4.615 0-8.073-1.746-9.491-4.79s0-6.796 3.338-10.428l.524.49C1.8 11.597.796 15.066 2.029 17.728s4.211 4.004 8.28 4.004a21.6 21.6 0 0 0 9.055-2.182 20.8 20.8 0 0 0 8.454-6.84c1.833-2.738 2.291-5.454 1.266-7.636-1.026-2.182-3.797-3.764-7.43-3.982V.164c4.113.218 7.244 1.549 8.553 4.363 1.266 2.651.786 5.826-1.32 8.968" opacity="0.11" transform="translate(0 .09)"/><path fill="url(#k)" d="M28.767 13.462a21.8 21.8 0 0 1-8.88 7.265 22.7 22.7 0 0 1-9.502 2.182c-4.56 0-7.985-1.702-9.392-4.724-1.408-3.021 0-6.709 3.272-10.287l.47.426C1.81 11.596.807 15.065 2.04 17.727s4.21 4.004 8.28 4.004a21.6 21.6 0 0 0 9.055-2.182 20.8 20.8 0 0 0 8.454-6.84c1.833-2.738 2.291-5.454 1.266-7.636-1.026-2.182-3.808-3.764-7.44-3.982V.25c4.047.229 7.134 1.549 8.421 4.364 1.288 2.814.775 5.738-1.309 8.847" opacity="0.22" transform="translate(0 .09)"/><path fill="url(#m)" d="M28.647 13.43a21.7 21.7 0 0 1-8.803 7.166 22.65 22.65 0 0 1-9.415 2.182c-4.527 0-7.92-1.713-9.316-4.702s0-6.632 3.207-10.167l.404.371C1.8 11.553.796 15.022 2.029 17.684s4.211 4.003 8.28 4.003a21.6 21.6 0 0 0 9.055-2.182 20.8 20.8 0 0 0 8.454-6.84c1.833-2.738 2.291-5.454 1.266-7.636-1.026-2.182-3.797-3.72-7.43-3.938V.349c3.993.23 7.037 1.538 8.302 4.266 1.266 2.727.764 5.738-1.309 8.814" opacity="0.33" transform="translate(0 .09)"/><path fill="url(#n)" d="M28.527 13.407a21.47 21.47 0 0 1-8.727 7.091 22.3 22.3 0 0 1-9.338 2.182c-4.484 0-7.855-1.702-9.24-4.67-1.386-2.966 0-6.545 3.153-10.035l.338.316c-2.924 3.273-3.928 6.742-2.695 9.404s4.211 4.003 8.28 4.003a21.6 21.6 0 0 0 9.055-2.182 20.8 20.8 0 0 0 8.454-6.84c1.833-2.738 2.291-5.454 1.266-7.636-1.026-2.182-3.786-3.73-7.418-3.95V.437c3.927.24 6.916 1.539 8.17 4.233 1.255 2.695.72 5.684-1.298 8.738" opacity="0.44" transform="translate(0 .09)"/><path fill="url(#o)" d="M28.364 13.375a21.35 21.35 0 0 1-8.64 7.036 22.2 22.2 0 0 1-9.251 2.182c-4.451 0-7.79-1.68-9.153-4.615-1.364-2.934 0-6.458 3.087-9.916l.273.262c-2.924 3.272-3.927 6.741-2.695 9.403s4.211 4.004 8.28 4.004a21.6 21.6 0 0 0 9.055-2.182 20.8 20.8 0 0 0 8.455-6.84c1.832-2.738 2.29-5.454 1.265-7.636s-3.753-3.764-7.385-3.982V.524c3.872.25 6.818 1.527 8.05 4.189s.742 5.629-1.341 8.662" opacity="0.56" transform="translate(0 .09)"/><path fill="url(#p)" d="M28.287 13.342a21.04 21.04 0 0 1-8.563 6.97 22 22 0 0 1-9.164 2.183c-4.364 0-7.713-1.67-9.076-4.582s0-6.371 3.032-9.818l.208.196C1.8 11.564.796 15.033 2.029 17.695s4.211 4.003 8.28 4.003a21.6 21.6 0 0 0 9.055-2.182 20.8 20.8 0 0 0 8.454-6.84c1.833-2.738 2.291-5.454 1.266-7.636-1.026-2.182-3.797-3.73-7.43-3.95V.623c3.83.283 6.71 1.56 7.942 4.178s.71 5.542-1.309 8.542" opacity="0.67" transform="translate(0 .09)"/><path fill="url(#q)" d="M28.167 13.32a20.84 20.84 0 0 1-8.53 6.905 21.9 21.9 0 0 1-9.077 2.182c-4.364 0-7.636-1.658-8.99-4.538-1.352-2.88 0-6.294 2.957-9.654l.153.141C1.756 11.63.753 15.098 1.985 17.76s4.211 4.004 8.28 4.004a21.6 21.6 0 0 0 9.055-2.182 20.8 20.8 0 0 0 8.455-6.84c1.832-2.738 2.29-5.455 1.265-7.637s-3.753-3.796-7.385-4.014V.74c3.763.263 6.61 1.517 7.8 4.103s.72 5.498-1.288 8.476" opacity="0.78" transform="translate(0 .09)"/><path fill="url(#r)" d="M28.058 13.287a20.7 20.7 0 0 1-8.422 6.84 21.6 21.6 0 0 1-8.989 2.128c-4.363 0-7.582-1.637-8.912-4.495s0-6.207 2.901-9.524l.088.088C1.8 11.596.796 15.065 2.029 17.727s4.211 4.004 8.28 4.004a21.6 21.6 0 0 0 9.055-2.182 20.8 20.8 0 0 0 8.454-6.84c1.833-2.738 2.291-5.454 1.266-7.636-1.026-2.182-3.797-3.764-7.43-3.982V.829c3.688.273 6.491 1.516 7.637 4.058s.742 5.455-1.233 8.4" opacity="0.89" transform="translate(0 .09)"/><path fill="url(#s)" d="M27.938 13.255c1.953-2.913 2.411-5.87 1.266-8.313S25.287 1.189 21.665.927v.164c3.633.185 6.339 1.636 7.43 3.982 1.025 2.182.567 4.887-1.266 7.636a20.8 20.8 0 0 1-8.454 6.84 21.6 21.6 0 0 1-9.055 2.182c-4.07 0-7.09-1.462-8.28-4.004s-.23-6.174 2.695-9.403c-2.87 3.272-4.168 6.545-2.837 9.403s4.506 4.418 8.793 4.418a21.5 21.5 0 0 0 8.945-2.105 20.56 20.56 0 0 0 8.302-6.785" transform="translate(0 .09)"/></g><path fill="#D8292F" fill-rule="nonzero" d="M61.042 29.3h-3.667l-5.7-6.862-.069-.192V20.89h2.896c1.541 0 2.494-1.032 2.494-2.384 0-1.388-.99-2.56-2.494-2.56h-3.11V29.3h-2.8V13.102h5.91c3.21 0 5.316 2.445 5.316 5.404 0 2.338-1.405 4.278-3.733 4.895zm12.951-5.671-.05.237H63.939c.175 1.79 1.9 3.14 3.689 3.14 1.452 0 2.66-.644 3.276-1.82l.085-.16h2.825l-.139.398c-.892 2.568-3.313 4.096-6.069 4.096-3.598 0-6.438-2.535-6.438-6.46 0-3.941 2.812-6.438 6.482-6.438 3.423 0 6.155 2.268 6.393 5.882.045.37.026.774-.05 1.125m-2.896-2.145c-.454-1.557-1.75-2.37-3.447-2.37-1.718 0-3.073.83-3.551 2.37zm17.807 2.684-.067.356c-.579 3.065-3.156 4.927-6.253 4.952-3.649.052-6.53-2.47-6.53-6.438 0-3.944 2.83-6.438 6.482-6.438 3.114 0 5.721 1.883 6.3 4.975l.067.355h-2.81l-.062-.22c-.457-1.636-1.835-2.596-3.473-2.596-2.112 0-3.748 1.506-3.748 3.924 0 2.447 1.622 3.946 3.77 3.946 1.632 0 2.993-.956 3.451-2.597l.061-.219zm14.956-1.108c0 3.95-2.954 6.46-6.746 6.46-3.739 0-6.68-2.529-6.68-6.46 0-3.95 2.954-6.46 6.746-6.46 3.753 0 6.68 2.523 6.68 6.46m-10.67 0c0 2.386 1.705 3.9 3.927 3.924 2.254.023 4.009-1.511 4.009-3.924 0-2.408-1.73-3.946-3.946-3.946-2.265 0-3.99 1.518-3.99 3.946m22.866-9.76h2.756v16h-2.756v-1.089c-.892.839-2.206 1.265-3.682 1.287-4.137 0-6.636-2.602-6.636-6.504 0-3.749 2.592-6.394 6.614-6.394 1.55 0 2.772.36 3.704 1.243zm0 9.738c0-2.45-1.63-3.969-3.743-3.946-2.246.038-3.797 1.77-3.819 3.905-.021 2.443 1.501 4.047 3.961 3.987 2.06-.046 3.601-1.546 3.601-3.946m18.031.59-.05.238h-10.004c.175 1.79 1.9 3.14 3.689 3.14 1.452 0 2.66-.644 3.276-1.82l.085-.16h2.825l-.139.398c-.892 2.568-3.313 4.096-6.069 4.096-3.598 0-6.438-2.535-6.438-6.46 0-3.941 2.812-6.438 6.482-6.438 3.423 0 6.155 2.268 6.393 5.882.045.37.026.774-.05 1.125m-9.894-2.144h6.998c-.454-1.557-1.75-2.37-3.447-2.37-1.718 0-3.073.83-3.551 2.37"/></g></svg>