<svg id="Слой_1" data-name="Слой 1" xmlns="http://www.w3.org/2000/svg" viewBox="0 0 400 280"><defs><style>.cls-1{fill:#fff;}.cls-2{fill:#3b499f;}</style></defs><title>bifit</title><rect class="cls-1" width="400" height="280"/><path class="cls-2" d="M92.74,139.93c18.21-5,17.5-21.43,17.5-21.43,0-25-23.93-27.07-23.93-27.07l-56.06.06v97.08l58.2-.06c23.93-2.15,24.65-25,24.65-25C113.45,142.07,92.74,139.93,92.74,139.93ZM57.93,109.22l16.42,0s6.79,0,6.43,11.39c-.29,9.29-7.14,8.91-7.14,8.91l-15.71,0Zm17,61.4-16.76,0V148.94l17.52.06s7.23-.06,6.85,12.13C82.27,171,75,170.62,75,170.62Z"/><polygon class="cls-2" points="166.39 188.57 166.39 91.74 234.43 91.74 234.43 109.3 193.62 109.32 193.91 132.46 230.98 132.41 230.95 150.31 193.71 150.31 193.71 188.57 166.39 188.57"/><polygon class="cls-2" points="286.75 109.56 286.75 91.55 369.95 91.55 370 109.56 341.21 109.56 341.21 188.57 313.54 188.57 313.54 109.53 286.75 109.56"/><line class="cls-2" x1="356.63" y1="188.57" x2="356.63" y2="188.57"/><path class="cls-2" d="M124.62,91.56v20.66l20.53-20.66Zm27.66-.13-27.66,27.65v69.49H152.3V91.43Z"/><path class="cls-2" d="M246.89,91.56v20.66l20.53-20.66Zm27.65-.13-27.65,27.65v69.49h27.67V91.43Z"/></svg>